# xmcd
#
# Track frame offsets:
#       150
#       12225
#       21450
#       29542
#       39262
#       51150
#       60710
#       74412
#       85322
#       93827
#
# Disc length: 1364 seconds
#
# Revision: 0
# Processed by: cddbd v1.5.1PL2 Copyright (c) Steve Scherf et al.
# Submitted via: CD-DA_X-Tractor v0.24
#
DISCID=7f05520a
DTITLE=Various Artist - The Best of Banjo Music
DYEAR=2002
DGENRE=Bluegrass Collection
TTITLE0=Flatt And Scruggs - Foggy Mountain Breakdown
TTITLE1=Grandpa Jones - Pickin' Time
TTITLE2=Billy's Banjo Band - Struttin' With Some Barbeque
TTITLE3=Buck Trent - Banjo Buck
TTITLE4=Flatt And Scruggs - Roll In My Sweet Baby's Arms
TTITLE5=Buck Trent - Trent's Tornado
TTITLE6=The Osborne Brothers - Ruby (Are You Mad At Your Man)
TTITLE7=Buck Trent - Buck's Hee Haw Talking Blues
TTITLE8=Grandpa Jones - Waitin' For A Train
TTITLE9=Smokey River Boys - Dueling Banjos
EXTD=
EXTT0=
EXTT1=
EXTT2=
EXTT3=
EXTT4=
EXTT5=
EXTT6=
EXTT7=
EXTT8=
EXTT9=
PLAYORDER=
